<?xml version="1.0" encoding="UTF-8" standalone="no"?>
<svg
   xmlns:dc="http://purl.org/dc/elements/1.1/"
   xmlns:cc="http://creativecommons.org/ns#"
   xmlns:rdf="http://www.w3.org/1999/02/22-rdf-syntax-ns#"
   xmlns:svg="http://www.w3.org/2000/svg"
   xmlns="http://www.w3.org/2000/svg"
   id="svg8"
   version="1.1"
   viewBox="0 0 76.200001 50.800001"
   height="2in"
   width="3in">
  <defs
     id="defs2" />
  <metadata
     id="metadata5">
    <rdf:RDF>
      <cc:Work
         rdf:about="">
        <dc:format>image/svg+xml</dc:format>
        <dc:type
           rdf:resource="http://purl.org/dc/dcmitype/StillImage" />
        <dc:title></dc:title>
      </cc:Work>
    </rdf:RDF>
  </metadata>
  <g
     id="layer5">
    <rect
       y="7.1054274e-15"
       x="0"
       height="50.799999"
       width="76.199997"
       id="rect821-3-6"
       style="opacity:1;fill:#ffffff;fill-opacity:1;stroke:none;stroke-width:1.68398893;stroke-miterlimit:4;stroke-dasharray:none;stroke-dashoffset:0;stroke-opacity:1;paint-order:stroke markers fill" />
  </g>
  <g
     style="display:inline"
     transform="translate(0,-246.19998)"
     id="layer1">
    <rect
       y="263.97998"
       x="0"
       height="5.0799999"
       width="76.199997"
       id="rect821"
       style="opacity:1;fill:#f5a9b8;fill-opacity:1;stroke:none;stroke-width:0.53252405;stroke-miterlimit:4;stroke-dasharray:none;stroke-dashoffset:0;stroke-opacity:1;paint-order:stroke markers fill" />
    <rect
       y="274.13998"
       x="-1.7763568e-15"
       height="5.0799999"
       width="76.199997"
       id="rect821-3"
       style="opacity:1;fill:#5bcefa;fill-opacity:1;stroke:none;stroke-width:0.53252405;stroke-miterlimit:4;stroke-dasharray:none;stroke-dashoffset:0;stroke-opacity:1;paint-order:stroke markers fill" />
  </g>
  <g
     id="layer2">
    <path
       id="path856-5"
       d="m 25.4,17.780052 a 2.5400002,2.5400002 0 0 0 -2.539897,2.539896 2.5400002,2.5400002 0 0 0 1.270206,2.197283 v 5.766573 A 2.5400004,2.5400004 0 0 0 22.860103,30.480052 2.5400004,2.5400004 0 0 0 25.4,33.019948 2.5400004,2.5400004 0 0 0 27.939896,30.480052 2.5400004,2.5400004 0 0 0 26.66969,28.282769 V 22.515681 A 2.5400002,2.5400002 0 0 0 27.939896,20.319948 2.5400002,2.5400002 0 0 0 25.4,17.780052 Z"
       style="opacity:1;fill:#ffffff;fill-opacity:1;stroke:#000000;stroke-width:2.53999996;stroke-miterlimit:4;stroke-dasharray:none;stroke-dashoffset:0;stroke-opacity:1;paint-order:stroke markers fill" />
  </g>
</svg>
