<?xml version="1.0" encoding="UTF-8"?>
<svg
   xmlns="http://www.w3.org/2000/svg"
   version="1.1"
   viewBox="0 0 600 400"
   height="2in"
   width="3in">
  <g>
    <rect
       y="0"
       x="0"
       height="400"
       width="600"
       style="fill:#ffffff" />
  </g>
  <g>
    <rect
       y="140"
       x="1.2210704e-14"
       height="40"
       width="600"
       style="fill:#f5a9b8" />
    <rect
       y="220"
       x="0"
       height="40"
       width="600"
       style="fill:#5bcefa" />
  </g>
  <g>
    <path
       d="m 200.00407,129.99675 c -16.44917,6.7e-4 -30.00422,13.55572 -30.00489,30.00488 0.008,8.24962 4.18505,15.36502 9.99757,20.94727 v 38.11036 c -5.8086,5.57927 -9.98596,12.68641 -9.99757,20.93098 v 0.0125 c 6.8e-4,16.44918 13.55572,29.98794 30.00489,29.98861 16.44916,-6.7e-4 29.98793,-13.53943 29.98859,-29.98861 v -0.0125 c -0.009,-8.2554 -4.1776,-15.36419 -9.99753,-20.94727 V 180.9489 c 5.81737,-5.57899 9.98424,-12.6806 9.99753,-20.93099 v -0.0163 C 229.992,143.55242 216.45323,129.99737 200.00407,129.9967 Z m -0.004,10.0057 a 20.000002,20.000003 0 0 1 19.99919,19.99511 20.000002,20.000003 0 0 1 -10.00163,17.2933 v 45.40609 a 20.000003,20.000004 0 0 1 10.00163,17.3055 20.000003,20.000004 0 0 1 -19.99919,19.99512 20.000003,20.000004 0 0 1 -19.99919,-19.99512 20.000003,20.000004 0 0 1 10.00163,-17.2933 V 177.30307 A 20.000002,20.000003 0 0 1 180.00081,159.99756 20.000002,20.000003 0 0 1 200,140.00245 Z"
       style="color:#000000" />
    <path
       d="m 200.00001,140.00042 a 20.000002,20.000003 0 0 0 -19.99919,19.99918 20.000002,20.000003 0 0 0 10.00162,17.30145 v 45.40608 a 20.000003,20.000005 0 0 0 -10.00162,17.29329 20.000003,20.000005 0 0 0 19.99919,19.99918 20.000003,20.000005 0 0 0 19.99918,-19.99918 20.000003,20.000005 0 0 0 -10.00162,-17.30144 v -45.41015 a 20.000002,20.000003 0 0 0 10.00162,-17.28923 20.000002,20.000003 0 0 0 -19.99918,-19.99918 z"
       style="fill:#ffffff" />
  </g>
</svg>
