<?xml version="1.0" encoding="UTF-8" standalone="no"?>
<!-- Created with Inkscape (http://www.inkscape.org/) -->

<svg
   xmlns:dc="http://purl.org/dc/elements/1.1/"
   xmlns:cc="http://creativecommons.org/ns#"
   xmlns:rdf="http://www.w3.org/1999/02/22-rdf-syntax-ns#"
   xmlns:svg="http://www.w3.org/2000/svg"
   xmlns="http://www.w3.org/2000/svg"
   xmlns:sodipodi="http://sodipodi.sourceforge.net/DTD/sodipodi-0.dtd"
   xmlns:inkscape="http://www.inkscape.org/namespaces/inkscape"
   width="3in"
   height="2in"
   viewBox="0 0 600 400"
   version="1.1"
   id="svg8"
   inkscape:version="0.92.2 5c3e80d, 2017-08-06"
   sodipodi:docname="trains-trans-flag-inkscape.svg"
   inkscape:export-filename="/home/sky/pics/trains-trans-flag/trains-trans-flag.png"
   inkscape:export-xdpi="200"
   inkscape:export-ydpi="200">
  <defs
     id="defs2" />
  <sodipodi:namedview
     id="base"
     pagecolor="#ffffff"
     bordercolor="#666666"
     borderopacity="1.0"
     inkscape:pageopacity="0.0"
     inkscape:pageshadow="2"
     inkscape:zoom="1.979899"
     inkscape:cx="143.01131"
     inkscape:cy="128.45584"
     inkscape:document-units="in"
     inkscape:current-layer="layer2"
     showgrid="false"
     units="in"
     inkscape:snap-bbox="true"
     inkscape:snap-bbox-midpoints="true"
     inkscape:bbox-nodes="true"
     inkscape:snap-bbox-edge-midpoints="true"
     inkscape:bbox-paths="true"
     inkscape:window-width="1362"
     inkscape:window-height="740"
     inkscape:window-x="0"
     inkscape:window-y="24"
     inkscape:window-maximized="1"
     inkscape:pagecheckerboard="false"
     scale-x="2.2"
     viewbox-x="-0.4">
    <inkscape:grid
       type="xygrid"
       id="grid853"
       units="in"
       spacingx="2.54"
       spacingy="2.54" />
  </sodipodi:namedview>
  <metadata
     id="metadata5">
    <rdf:RDF>
      <cc:Work
         rdf:about="">
        <dc:format>image/svg+xml</dc:format>
        <dc:type
           rdf:resource="http://purl.org/dc/dcmitype/StillImage" />
        <dc:title></dc:title>
      </cc:Work>
    </rdf:RDF>
  </metadata>
  <g
     inkscape:groupmode="layer"
     id="layer5"
     inkscape:label="Background">
    <rect
       style="opacity:1;fill:#ffffff;fill-opacity:1;stroke:none;stroke-width:13.25975513;stroke-miterlimit:4;stroke-dasharray:none;stroke-dashoffset:0;stroke-opacity:1;paint-order:stroke markers fill"
       id="rect821-3-6"
       width="600"
       height="400"
       x="1.2210704e-14"
       y="5.5948251e-14" />
  </g>
  <g
     inkscape:label="Lines"
     inkscape:groupmode="layer"
     id="layer1"
     transform="translate(0,-246.19998)"
     style="display:inline">
    <rect
       style="opacity:1;fill:#f5a9b8;fill-opacity:1;stroke:none;stroke-width:4.19310284;stroke-miterlimit:4;stroke-dasharray:none;stroke-dashoffset:0;stroke-opacity:1;paint-order:stroke markers fill"
       id="rect821"
       width="600"
       height="40"
       x="1.2210704e-14"
       y="386.19998" />
    <rect
       style="opacity:1;fill:#5bcefa;fill-opacity:1;stroke:none;stroke-width:4.19310284;stroke-miterlimit:4;stroke-dasharray:none;stroke-dashoffset:0;stroke-opacity:1;paint-order:stroke markers fill"
       id="rect821-3"
       width="600"
       height="40"
       x="-1.7763568e-15"
       y="466.20001" />
  </g>
  <g
     inkscape:groupmode="layer"
     id="layer2"
     inkscape:label="Transfer Bubble">
    <path
       style="color:#000000;font-style:normal;font-variant:normal;font-weight:normal;font-stretch:normal;font-size:medium;line-height:normal;font-family:sans-serif;font-variant-ligatures:normal;font-variant-position:normal;font-variant-caps:normal;font-variant-numeric:normal;font-variant-alternates:normal;font-feature-settings:normal;text-indent:0;text-align:start;text-decoration:none;text-decoration-line:none;text-decoration-style:solid;text-decoration-color:#000000;letter-spacing:normal;word-spacing:normal;text-transform:none;writing-mode:lr-tb;direction:ltr;text-orientation:mixed;dominant-baseline:auto;baseline-shift:baseline;text-anchor:start;white-space:normal;shape-padding:0;clip-rule:nonzero;display:inline;overflow:visible;visibility:visible;opacity:1;isolation:auto;mix-blend-mode:normal;color-interpolation:sRGB;color-interpolation-filters:linearRGB;solid-color:#000000;solid-opacity:1;vector-effect:none;fill:#000000;fill-opacity:1;fill-rule:nonzero;stroke:none;stroke-width:19.99999809;stroke-linecap:butt;stroke-linejoin:miter;stroke-miterlimit:4;stroke-dasharray:none;stroke-dashoffset:0;stroke-opacity:1;paint-order:stroke markers fill;color-rendering:auto;image-rendering:auto;shape-rendering:auto;text-rendering:auto;enable-background:accumulate"
       d="m 200.00407,129.99675 c -16.44917,6.7e-4 -30.00422,13.55572 -30.00489,30.00488 0.008,8.24962 4.18505,15.36502 9.99757,20.94727 v 38.11036 c -5.8086,5.57927 -9.98596,12.68641 -9.99757,20.93098 v 0.0125 c 6.8e-4,16.44918 13.55572,29.98794 30.00489,29.98861 16.44916,-6.7e-4 29.98793,-13.53943 29.98859,-29.98861 v -0.0125 c -0.009,-8.2554 -4.1776,-15.36419 -9.99753,-20.94727 V 180.9489 c 5.81737,-5.57899 9.98424,-12.6806 9.99753,-20.93099 v -0.0163 C 229.992,143.55242 216.45323,129.99737 200.00407,129.9967 Z m -0.004,10.0057 a 20.000002,20.000003 0 0 1 19.99919,19.99511 20.000002,20.000003 0 0 1 -10.00163,17.2933 v 45.40609 a 20.000003,20.000004 0 0 1 10.00163,17.3055 20.000003,20.000004 0 0 1 -19.99919,19.99512 20.000003,20.000004 0 0 1 -19.99919,-19.99512 20.000003,20.000004 0 0 1 10.00163,-17.2933 V 177.30307 A 20.000002,20.000003 0 0 1 180.00081,159.99756 20.000002,20.000003 0 0 1 200,140.00245 Z"
       id="path856-5"
       inkscape:connector-curvature="0" />
    <path
       style="opacity:1;fill:#ffffff;fill-opacity:1;stroke:none;stroke-width:20.00000381;stroke-miterlimit:4;stroke-dasharray:none;stroke-dashoffset:0;stroke-opacity:1;paint-order:stroke markers fill"
       d="m 200.00001,140.00042 a 20.000002,20.000003 0 0 0 -19.99919,19.99918 20.000002,20.000003 0 0 0 10.00162,17.30145 v 45.40608 a 20.000003,20.000005 0 0 0 -10.00162,17.29329 20.000003,20.000005 0 0 0 19.99919,19.99918 20.000003,20.000005 0 0 0 19.99918,-19.99918 20.000003,20.000005 0 0 0 -10.00162,-17.30144 v -45.41015 a 20.000002,20.000003 0 0 0 10.00162,-17.28923 20.000002,20.000003 0 0 0 -19.99918,-19.99918 z"
       id="path856-5-3-7"
       inkscape:connector-curvature="0" />
  </g>
</svg>
